<svg height="21" viewBox="0 0 18 21" width="18" xmlns="http://www.w3.org/2000/svg"><path d="m1171.49997 502.468761v.312499c0 .130208-.04557.240885-.13672.332031-.09114.091145-.20182.136718-.33203.136718h-2.65624v2.656244c0 .130207-.04558.240885-.13672.33203-.09115.091145-.20182.136718-.33203.136718h-.3125c-.13021 0-.24089-.045573-.33203-.136718-.09115-.091145-.13672-.201823-.13672-.33203v-2.656244h-2.65624c-.13021 0-.24089-.045573-.33203-.136718-.09115-.091146-.13672-.201823-.13672-.332031v-.312499c0-.130208.04557-.240885.13672-.332031.09114-.091145.20182-.136718.33203-.136718h2.65624v-2.656244c0-.130208.04557-.240885.13672-.33203.09114-.091146.20182-.136719.33203-.136719h.3125c.13021 0 .24088.045573.33203.136719.09114.091145.13672.201822.13672.33203v2.656244h2.65624c.13021 0 .24089.045573.33203.136718.09115.091146.13672.201823.13672.332031zm4.99999-8.59373v13.749968c0 .520831-.18229.963539-.54688 1.328121-.36458.364583-.80729.546874-1.32812.546874h-13.74996c-.52084 0-.96354-.182291-1.32813-.546874-.36458-.364582-.54687-.80729-.54687-1.328121v-13.749968c0-.520832.18229-.963539.54687-1.328122.36459-.364582.80729-.546873 1.32813-.546873h1.87499v-2.031245c0-.130208.04557-.240885.13672-.332031.09114-.091145.20182-.136718.33203-.136718h.3125c.13021 0 .24088.045573.33203.136718.09115.091146.13672.201823.13672.332031v2.031245h7.49998v-2.031245c0-.130208.04557-.240885.13672-.332031.09114-.091145.20182-.136718.33203-.136718h.3125c.13021 0 .24088.045573.33203.136718.09114.091146.13672.201823.13672.332031v2.031245h1.87499c.52083 0 .96354.182291 1.32812.546873.36459.364583.54688.80729.54688 1.328122zm-16.24996 0v1.874996h14.99996v-1.874996c0-.182291-.05859-.33203-.17578-.449217-.11719-.117188-.26693-.175781-.44922-.175781h-13.74996c-.1823 0-.33203.058593-.44922.175781-.11719.117187-.17578.266926-.17578.449217zm14.99996 13.749968v-10.624975h-14.99996v10.624975c0 .182291.05859.33203.17578.449217s.26692.175781.44922.175781h13.74996c.18229 0 .33203-.058594.44922-.175781s.17578-.266926.17578-.449217z" fill="#2b62ca" transform="translate(-1159 -489)"/></svg>