<svg xmlns="http://www.w3.org/2000/svg" viewBox="0 0 26 26"><defs><style>.cls-1{fill:#2b62c9;}</style></defs><title>Asset 1</title><g id="Layer_2" data-name="Layer 2"><g id="Layer_1-2" data-name="Layer 1"><path class="cls-1" d="M13,25V24a11,11,0,1,0-7.78-3.22A11,11,0,0,0,13,24v2A13,13,0,1,1,26,13,13,13,0,0,1,13,26Z"/><path class="cls-1" d="M10.83,10.94a1.66,1.66,0,0,1-.65-1.42A2,2,0,0,1,10.85,8a2.9,2.9,0,0,1,2.07-.64h.3q-.17,1.26-.3,2.22c0,.28-.08.55-.11.81s-.07.49-.1.7-.06.44-.09.71a6.93,6.93,0,0,1-1.79-.88m2.3-4.7H12.9a4.86,4.86,0,0,0-1.61.25,3.84,3.84,0,0,0-1.26.7,3.1,3.1,0,0,0-.82,1.08,3.3,3.3,0,0,0-.29,1.37A2.94,2.94,0,0,0,9.22,11,3.05,3.05,0,0,0,10,12a4.41,4.41,0,0,0,1.1.64q.62.26,1.26.45c-.12.92-.23,1.75-.34,2.48,0,.31-.08.61-.13.91s-.08.56-.11.79-.06.49-.1.78a5.9,5.9,0,0,1-1.35-.42A8.06,8.06,0,0,1,9.14,17L8.68,18.1a8.22,8.22,0,0,0,1.36.68,6.32,6.32,0,0,0,1.48.38l-.3,2.3h.86l.3-2.2h.3A5.22,5.22,0,0,0,14.4,19a4,4,0,0,0,1.33-.75,3.44,3.44,0,0,0,.86-1.14,3.31,3.31,0,0,0,.31-1.45,3.07,3.07,0,0,0-.3-1.42,3.33,3.33,0,0,0-.78-1,4.16,4.16,0,0,0-1.11-.69,11.68,11.68,0,0,0-1.29-.47L14,7.5a5.77,5.77,0,0,1,2.16.92l.46-1.12a8.37,8.37,0,0,0-1.16-.58,6.93,6.93,0,0,0-1.3-.36l.26-2H13.6l-.12.92c0,.23-.05.44-.08.63s0,.3,0,.31Zm0,7.1a6,6,0,0,1,1.87.92,1.83,1.83,0,0,1,.65,1.5,2.11,2.11,0,0,1-.21.93,2.17,2.17,0,0,1-.6.75,2.9,2.9,0,0,1-.94.5,3.89,3.89,0,0,1-1.21.18h-.2Z"/></g></g></svg>