<svg height="19" viewBox="0 0 23 19" width="23" xmlns="http://www.w3.org/2000/svg"><path d="m1246.62495 491.750039c.52083 0 .96354.182291 1.32812.546873.36458.364583.54688.80729.54688 1.328122v11.249973c0 .520832-.1823.96354-.54688 1.328122-.36458.364583-.80729.546874-1.32812.546874h-.625v.624998c0 .520832-.18229.96354-.54687 1.328122-.36458.364583-.80729.546874-1.32812.546874h-16.24996c-.52084 0-.96354-.182291-1.32813-.546874-.36458-.364582-.54687-.80729-.54687-1.328122v-11.249973c0-.520832.18229-.963539.54687-1.328122.36459-.364582.80729-.546873 1.32813-.546873h.62499v-.624999c0-.520832.1823-.963539.54688-1.328122.36458-.364582.80729-.546873 1.32812-.546873zm-1.87499 15.624962v-.624998h-14.37497c-.52083 0-.96354-.182291-1.32812-.546874-.36458-.364582-.54688-.80729-.54688-1.328122v-9.374977h-.62499c-.1823 0-.33203.058593-.44922.175781-.11719.117187-.17578.266926-.17578.449217v11.249973c0 .182292.05859.332031.17578.449218s.26692.175781.44922.175781h16.24996c.18229 0 .33203-.058594.44921-.175781.11719-.117187.17579-.266926.17579-.449218zm2.49999-2.499994v-11.249973c0-.182291-.05859-.33203-.17578-.449217-.11719-.117188-.26693-.175781-.44922-.175781h-16.24996c-.18229 0-.33203.058593-.44922.175781-.11719.117187-.17578.266926-.17578.449217v11.249973c0 .182292.05859.332031.17578.449218s.26693.175781.44922.175781h16.24996c.18229 0 .33203-.058594.44922-.175781s.17578-.266926.17578-.449218zm-14.37497-6.562484c-.59895 0-1.11327-.214843-1.54296-.64453-.42969-.429686-.64453-.944008-.64453-1.542965 0-.598956.21484-1.113278.64453-1.542965.42969-.429686.94401-.644529 1.54296-.644529.59896 0 1.11328.214843 1.54297.644529.42969.429687.64453.944009.64453 1.542965 0 .598957-.21484 1.113279-.64453 1.542965-.42969.429687-.94401.64453-1.54297.64453zm0-3.124992c-.26041 0-.48177.091145-.66406.273436-.18229.182292-.27343.403645-.27343.664061 0 .260417.09114.48177.27343.664061.18229.182292.40365.273437.66406.273437.26042 0 .48177-.091145.66406-.273437.1823-.182291.27344-.403644.27344-.664061 0-.260416-.09114-.481769-.27344-.664061-.18229-.182291-.40364-.273436-.66406-.273436zm9.41404.898435 3.4375 3.437492c.18229.182291.27343.403644.27343.664061v3.593741c0 .130208-.04557.240885-.13672.332031-.09114.091145-.20182.136718-.33203.136718h-14.06246c-.13021 0-.24089-.045573-.33203-.136718-.09115-.091146-.13672-.201823-.13672-.332031v-1.093747c0-.260417.09114-.48177.27343-.664061l3.4375-3.437492c.18229-.182291.40364-.273437.66406-.273437.26041 0 .48177.091146.66406.273437l1.21093 1.210935 3.71093-3.710929c.18229-.182292.40365-.273437.66406-.273437.26042 0 .48177.091145.66406.273437zm2.46094 6.914046v-2.695306l-3.125-3.124993-4.37499 4.37499-1.87499-1.874996-3.12499 3.124993v.195312z" fill="#2b62ca" transform="translate(-1226 -491)"/></svg>