<svg height="20" viewBox="0 0 21 20" width="21" xmlns="http://www.w3.org/2000/svg"><g fill="none" fill-rule="evenodd" transform="translate(1 1)"><ellipse cx="9.5" cy="9" rx="9.5" ry="9" stroke="#2b62ca" stroke-width="2"/><path d="m9.27007299 12.6506448h.1703163c.37469774 0 .71816551-.0422036 1.03041361-.126612s.5790743-.2016405.8004866-.3516999c.2214123-.1500593.3917269-.3259075.5109489-.5275498.1192221-.2016423.1788322-.419694.1788322-.6541618 0-.4595568-.1845075-.8112531-.553528-1.05509961-.3690205-.24384647-.8998344-.45955358-1.59245744-.64712779zm.71532847-8.34232124c0-.00937871.01135431-.08206262.03406324-.21805392.022709-.1359913.0454176-.28370378.0681265-.44314186l.1021898-.64712778h.7323601l-.2214112 1.37866354c.3860522.05627226.7550672.14302403 1.107056.26025791s.6812637.25556779.9878345.41500587l-.3917275.78780773c-.5563693-.31887615-1.1695019-.53458326-1.839416-.64712778l-.5279805 3.20750293c.3746977.0937871.7408741.2039853 1.0985401.33059789s.672748.28839292.9452555.48534584c.2725074.19695292.4939164.43141716.6642335.70339976.1703172.27198261.2554745.60492181.2554745.99882771 0 .3657697-.0879959.7033982-.2639903 1.0128956-.1759944.3094975-.420112.5767867-.7323601.8018758-.3122481.225089-.6897788.4009372-1.1326034.5275498s-.93105975.1899179-1.46472017.1899179h-.25547445l-.25547445 1.5474795h-.7323601l.25547445-1.6178195c-.43147012-.0468935-.85157946-.1359899-1.26034063-.2672919-.40876117-.1313019-.79480759-.2907376-1.15815085-.4783118l.39172749-.8018757c.31792536.1781955.65571598.3329419 1.013382.4642438s.74087387.2297769 1.14963504.2954279l.02554744-.1547479c.01703172-.1031659.03690175-.2344658.05961071-.3939039.02270895-.1594381.05393329-.3446648.09367396-.5556858s.07664217-.4243835.1107056-.6400938c.09083581-.5158291.18734742-1.09730042.28953771-1.74443144-.36334326-.0937871-.72100392-.19929601-1.0729927-.31652989s-.66423221-.267291-.93673966-.45017585c-.27250744-.18288485-.49391642-.40797053-.66423358-.67526377-.17031715-.26729325-.25547445-.59319855-.25547445-.97772568 0-.34701228.08231872-.6682283.24695864-.96365768.16463991-.29542938.3974032-.54865076.69829684-.75967174.30089363-.21102099.65855429-.37514596 1.0729927-.49237984.4144384-.11723388.87144924-.17584994 1.37104623-.17584994h.19586374c.06244963 0 .12773689.00468928.19586375.01406799zm-.64720195 3.9249707s.00567716-.04689285.01703163-.14067996c.01135448-.0937871.03122452-.21336387.05961071-.35873388s.05677196-.30949498.08515815-.49237983c.02838619-.18288486.05961054-.37280089.09367397-.56975381.07948133-.4501781.16463863-.97068873.25547445-1.56154748h-.25547445c-.79481339 0-1.38239875.15005711-1.76277373.45017585-.38037497.30011873-.57055961.6518151-.57055961 1.05509964 0 .4407994.18450748.77373862.55352798.99882767s.87712572.43141759 1.5243309.6189918z" fill="#2b62ca" fill-rule="nonzero"/></g></svg>