<svg height="19" viewBox="0 0 23 19" width="23" xmlns="http://www.w3.org/2000/svg"><path d="m1210.74214 492.867226c.41666-.182291.8138-.149739 1.1914.097656s.56641.592447.56641 1.035154v12.49997c0 .234374-.06511.455728-.19532.664061-.1302.208333-.31249.364582-.54687.468749l-5.62499 2.499994c-.28645.130208-.57291.156249-.85937.078125l-8.32029-2.382807-5.1953 2.304682c-.41667.182291-.8138.149739-1.19141-.097656-.3776-.247395-.5664-.592447-.5664-1.035154v-12.49997c0-.234375.0651-.455728.19531-.664061s.3125-.364582.54688-.468749l5.62498-2.499994c.28646-.130208.57292-.15625.85938-.078125l8.32029 2.382807zm-13.24216 1.328122v12.49997l7.49998 2.10937v-12.49997zm-6.24998 14.804652 4.99999-2.226557v-12.49997l-4.99999 2.226557zm19.99995-2.499994v-12.49997l-4.99999 2.226557v12.49997z" fill="#2b62ca" transform="translate(-1190 -492)"/></svg>