<svg height="37" viewBox="0 0 37 37" width="37" xmlns="http://www.w3.org/2000/svg"><g fill="#fff" fill-rule="evenodd" transform="translate(.1 .25)"><path d="m17.9.75-8.00000002 3-1 7 1 7 3.50000002 6-12.50000002 6v5h34.00000002v-5l-12-6 4-7v-11l-7-5z" fill-opacity=".3"/><path d="m18 2.25c-.9609423 0-1.9101516.18163881-2.8476562.54492188-.9375047.36328306-1.7812463.82616906-2.53125 1.38867187-.7500038.56250281-1.3535134 1.17187172-1.8105469 1.828125-.4570336.65625328-.6855469 1.27734082-.6855469 1.86328125v5.625c0 1.101568.2753879 2.5078039.8261719 4.21875s1.4121035 3.0351516 2.5839843 3.9726562c.3046891.2343762.5332024.5332014.6855469.8964844.1523445.3632831.2050784.7441387.1582031 1.1425782-.0703128.3750018-.2167957.7207015-.4394531 1.0371093-.2226573.3164079-.5097638.5566398-.8613281.7207031l-9.87890625 4.6757813c-.1406257.0468752-.33398314.1582022-.58007813.3339844-.24609498.1757821-.36914062.4980445-.36914062.9667969v2.2851562l31.4648438-.0351562v-2.1796876c0-.609378-.146483-.9902336-.4394532-1.1425781s-.4511717-.2285156-.4746094-.2285156l-9.8085937-4.640625c-.3515643-.1640633-.6445301-.4042953-.8789063-.7207031-.2343761-.3164079-.3749997-.6738262-.421875-1.0722656-.0468752-.3984395.0058587-.7792951.1582032-1.1425782.1523445-.363283.3808578-.6621082.6855468-.8964844 1.2187561-.9375046 2.0800757-2.2675695 2.5839844-3.9902343.5039088-1.7226649.7558594-3.1230415.7558594-4.2011719v-5.625c0-.60937805-.2343727-1.24218422-.703125-1.8984375s-1.0722619-1.25976287-1.8105469-1.81054688c-.7382849-.550784-1.5820265-1.00781068-2.53125-1.37109374-.9492235-.36328307-1.8925734-.54492188-2.8300781-.54492188zm0-2.25c1.2421937 0 2.4667908.23437266 3.6738281.703125s2.2851515 1.07812125 3.234375 1.828125 1.7226533 1.59374531 2.3203125 2.53125c.5976593.93750469.8964844 1.87499531.8964844 2.8125v5.625c0 .6796909-.0703118 1.4648393-.2109375 2.3554688-.1406257.8906294-.3749984 1.7988234-.703125 2.7246093s-.7617161 1.816402-1.3007813 2.671875c-.5390651.8554731-1.1953086 1.5878876-1.96875 2.1972657l9.8085938 4.6757812s.3691369.2050761 1.1074219.6152344c.7382849.4101583 1.1074219.9433561 1.1074219 1.5996094v3.4101562c0 .609378-.2167948 1.1308572-.6503907 1.5644531s-.9550751.6503907-1.5644531.6503907h-31.5c-.63281566 0-1.16601346-.2167948-1.59960937-.6503907-.43359592-.4335959-.65039063-.9550751-.65039063-1.5644531v-3.4101562c0-.6093781.37499625-1.1308573 1.125-1.5644532s1.125-.6503906 1.125-.6503906l9.8789062-4.6757812c-.7968789-.6328157-1.464841-1.3945268-2.0039062-2.2851563s-.97851393-1.7988235-1.31835938-2.7246094c-.33984544-.9257859-.58007742-1.8281206-.72070312-2.7070312-.1406257-.8789107-.2109375-1.6230439-.2109375-2.2324219v-5.625c0-.93750469.29296582-1.87499531.87890625-2.8125s1.35351085-1.78124625 2.30273435-2.53125 2.0331971-1.35937266 3.2519532-1.828125c1.218756-.46875234 2.4492125-.703125 3.6914062-.703125z"/></g></svg>